<svg width="24" height="24" viewBox="0 0 24 24" fill="none" xmlns="http://www.w3.org/2000/svg">
<path d="M12.5067 1.21947L12.1365 1.55565C13.0074 2.51446 14.861 4.64935 16.4939 7.15252C18.1419 9.67886 19.5 12.4843 19.5 14.8055C19.5 16.9998 18.769 18.742 17.4982 19.9378C16.224 21.1367 14.3566 21.8335 12 21.8335C9.64342 21.8335 7.776 21.1367 6.50181 19.9378C5.23099 18.742 4.5 16.9998 4.5 14.8055C4.5 12.4843 5.85806 9.67887 7.50613 7.15253C9.13893 4.64961 10.9925 2.51489 11.8637 1.55598C11.8774 1.54094 11.8963 1.52682 11.9203 1.51644C11.9443 1.50603 11.9717 1.50016 12.0003 1.50016C12.0289 1.50016 12.0563 1.50603 12.0803 1.51644C12.1043 1.52682 12.1232 1.54094 12.1369 1.55598L12.5067 1.21947ZM12.5067 1.21947C14.265 3.15532 20 9.84795 20 14.8055C20 19.4253 16.9089 22.3335 12 22.3335C7.09111 22.3335 4 19.4253 4 14.8055C4 9.84795 9.735 3.15532 11.4939 1.21947C11.5565 1.15069 11.6341 1.09548 11.7216 1.05762C11.809 1.01976 11.9041 1.00016 12.0003 1.00016C12.0965 1.00016 12.1916 1.01976 12.279 1.05762C12.3664 1.09548 12.4441 1.15069 12.5067 1.21947Z" stroke="#186654"/>
<path d="M17.3333 14.5263C17.3333 17.606 14.9455 20.1026 12 20.1026C9.05444 20.1026 6.66663 17.606 6.66663 14.5263C6.66663 12.9864 7.86053 11.7381 9.33329 11.7381C10.8061 11.7381 12 12.9864 12 14.5263C12 16.0662 13.1939 17.3145 14.6666 17.3145C16.1394 17.3145 17.3333 16.0662 17.3333 14.5263Z" fill="#186654"/>
</svg>
