<svg width="16" height="16" viewBox="0 0 16 16" fill="none" xmlns="http://www.w3.org/2000/svg">
<path d="M10.153 12.6873C9.29166 13.2151 8.30063 13.493 7.29051 13.4902C7.22126 13.4902 7.15189 13.4889 7.08208 13.4864C6.08476 13.4509 5.07808 13.16 4.08439 12.6224L10.3536 6.35322C10.4473 6.25945 10.5 6.13227 10.5 5.99966C10.5 5.86705 10.4473 5.73987 10.3536 5.6461C10.2598 5.55233 10.1326 5.49965 10 5.49965C9.8674 5.49965 9.74022 5.55233 9.64645 5.6461L3.37726 11.9153C2.83976 10.9216 2.54883 9.91491 2.51326 8.9176C2.46961 7.83742 2.74774 6.76861 3.31239 5.84672C4.94089 3.15785 8.75976 1.71972 13.5294 2.00047C13.6516 2.00767 13.767 2.05948 13.8536 2.14608C13.9402 2.23267 13.992 2.34804 13.9991 2.47028C14.2797 7.23928 12.8419 11.0588 10.153 12.6873ZM3.57126 12.2569C3.50406 12.1445 3.43938 12.0306 3.37726 11.9153L2.14645 13.1461C2.05268 13.2399 2 13.367 2 13.4997C2 13.6323 2.05268 13.7594 2.14645 13.8532C2.24022 13.947 2.3674 13.9997 2.50001 13.9997C2.63262 13.9997 2.7598 13.947 2.85358 13.8532L4.08439 12.6224C3.96908 12.5603 3.85518 12.4956 3.74276 12.4284C3.67238 12.3862 3.61348 12.3273 3.57126 12.2569Z" fill="black"/>
</svg>
