<svg width="24" height="24" viewBox="0 0 24 24" fill="none" xmlns="http://www.w3.org/2000/svg">
<path d="M11.6819 14.6919V16.7498H11.3599V13.9229V13.6729H11.1099C10.7449 13.6729 9.76336 13.4932 8.87906 12.9415C8.00706 12.3974 7.25 11.5071 7.25 10.0767V8.78823L8.64396 8.78809C8.64398 8.78809 8.64399 8.78809 8.644 8.78809C9.42626 8.78813 9.98762 8.97063 10.3977 9.26912C10.8085 9.56813 11.0917 10.0011 11.2854 10.5451C11.6788 11.6494 11.6819 13.1385 11.6819 14.6919Z" stroke="#186654" stroke-width="0.5"/>
<mask id="path-2-inside-1_347_3245" fill="white">
<path fill-rule="evenodd" clip-rule="evenodd" d="M15.3568 7H17.0008V8.53842C17.0008 9.97764 16.2856 12.7633 12.1554 13.1166C12.1292 11.9978 12.0366 10.9413 11.709 10.1047C12.4984 7.83123 14.1484 7 15.3568 7Z"/>
</mask>
<path d="M17.0008 7H17.5008V6.5H17.0008V7ZM12.1554 13.1166L11.6555 13.1282L11.6679 13.6601L12.198 13.6147L12.1554 13.1166ZM11.709 10.1047L11.2367 9.94068L11.1761 10.1151L11.2434 10.287L11.709 10.1047ZM17.0008 6.5H15.3568V7.5H17.0008V6.5ZM17.5008 8.53842V7H16.5008V8.53842H17.5008ZM12.198 13.6147C14.3823 13.4279 15.7328 12.5863 16.5259 11.536C17.3061 10.5029 17.5008 9.3291 17.5008 8.53842H16.5008C16.5008 9.18697 16.3379 10.1256 15.7279 10.9334C15.1309 11.724 14.0587 12.4519 12.1128 12.6184L12.198 13.6147ZM12.6552 13.1049C12.629 11.9812 12.5368 10.8474 12.1746 9.92236L11.2434 10.287C11.5364 11.0351 11.6295 12.0144 11.6555 13.1282L12.6552 13.1049ZM15.3568 6.5C13.9188 6.5 12.0903 7.48229 11.2367 9.94068L12.1813 10.2687C12.9066 8.18017 14.378 7.5 15.3568 7.5V6.5Z" fill="#186654" mask="url(#path-2-inside-1_347_3245)"/>
</svg>
