<svg width="24" height="24" viewBox="0 0 24 24" fill="none" xmlns="http://www.w3.org/2000/svg">
<path fill-rule="evenodd" clip-rule="evenodd" d="M10.3158 19.8224C10.8588 19.9388 11.4222 20 12 20C12.3387 20 12.6724 19.979 13 19.9381C16.9463 19.446 20 16.0796 20 12C20 7.92038 16.9463 4.55399 13 4.06189C12.6724 4.02104 12.3387 4 12 4C11.661 4 11.327 4.02108 10.9991 4.06201C7.32832 4.52018 4.43008 7.46528 4.04379 11.1579C4.01484 11.4346 4 11.7156 4 12C4 12.2844 4.01484 12.5654 4.04379 12.8421C4.10628 13.4394 4.23448 14.0171 4.42105 14.5679C4.56485 14.9925 4.74332 15.401 4.95308 15.7902C5.19466 16.2384 5.47774 16.6609 5.79719 17.0526C6.09321 17.4156 6.42045 17.7521 6.77482 18.058C7.09225 18.3321 7.43145 18.5816 7.78947 18.8036C8.19225 19.0534 8.61884 19.2684 9.06507 19.4445C9.46706 19.6031 9.88499 19.7301 10.3158 19.8224ZM19 12C19 15.5265 16.3923 18.4439 13 18.9291V5.07089C16.3923 5.55612 19 8.47353 19 12Z" fill="#186654"/>
</svg>
