<svg width="24" height="24" viewBox="0 0 24 24" fill="none" xmlns="http://www.w3.org/2000/svg">
<path fill-rule="evenodd" clip-rule="evenodd" d="M12.5 7.24976V5L11.5651 7.33776C11.8688 7.28302 12.1803 7.24977 12.5 7.24976ZM12.5 7.74976C9.87665 7.74976 7.75 9.87641 7.75 12.4998C7.75 15.1231 9.87665 17.2498 12.5 17.2498V7.74976ZM12.5 17.7498C12.1803 17.7498 11.8688 17.7166 11.5651 17.6618L12.5 19.9996V17.7498ZM12.5001 19.9998L12.5001 19.9998L12.5001 19.9998H12.5001ZM9.63019 5.57051L11.3869 7.37051C10.7731 7.50383 10.1884 7.7469 9.66094 8.08801L9.63019 5.57051ZM9.63019 19.429L11.3869 17.629C10.7731 17.4957 10.1884 17.2526 9.66094 16.9115L9.63019 19.429ZM5.57052 15.3695L7.37077 13.6132C7.50393 14.227 7.74692 14.8116 8.08802 15.339L5.57052 15.3695ZM5.57091 9.6295L8.08841 9.66025C7.74706 10.1876 7.50406 10.7723 7.37116 11.3863L5.57091 9.6295ZM7.1963 17.803L8.18805 15.4903C8.54632 16.0059 8.99376 16.4534 9.5093 16.8118L7.1963 17.803ZM7.338 11.5645C7.28325 11.8687 7.25 12.1802 7.25 12.4997C7.2514 12.8133 7.28085 13.1261 7.338 13.4345L5 12.4995L7.338 11.5645ZM7.19675 7.19628L9.50975 8.18753C8.99416 8.54611 8.54659 8.99369 8.188 9.50928L7.19675 7.19628Z" fill="#FF843F"/>
</svg>
