<svg width="24" height="24" viewBox="0 0 24 24" fill="none" xmlns="http://www.w3.org/2000/svg">
<path fill-rule="evenodd" clip-rule="evenodd" d="M9 7.96908L7.19675 7.19629L8.188 9.50929C8.42255 9.17205 8.69517 8.8639 9 8.59072V7.96908ZM9 9.28843C8.2238 10.1339 7.75 11.2615 7.75 12.4998C7.75 13.738 8.2238 14.8656 9 15.7111V9.28843ZM9 16.4091C8.6951 16.1359 8.42249 15.8277 8.18805 15.4903L7.1963 17.8031L9 17.0301V16.4091ZM12.5001 19.9997L12.5001 19.9998L12.5001 19.9997H12.5001ZM5.57052 15.3695L7.37077 13.6132C7.50393 14.227 7.74692 14.8116 8.08802 15.339L5.57052 15.3695ZM5.57091 9.62951L8.08841 9.66026C7.74706 10.1876 7.50406 10.7723 7.37116 11.3863L5.57091 9.62951ZM7.338 11.5645C7.28325 11.8687 7.25 12.1802 7.25 12.4997C7.2514 12.8133 7.28085 13.1262 7.338 13.4345L5 12.4995L7.338 11.5645Z" fill="#FF843F"/>
</svg>
