<svg width="24" height="24" viewBox="0 0 24 24" fill="none" xmlns="http://www.w3.org/2000/svg">
<path d="M7.1 12.5L7.1 12.5006C7.10104 12.7337 7.11716 12.9664 7.1482 13.1973L5.40396 12.4997L7.14867 11.802C7.11779 12.0298 7.1 12.2625 7.1 12.5ZM9.80771 17.1774C10.212 17.4111 10.645 17.5911 11.0959 17.7127L9.78476 19.0561L9.80771 17.1774ZM15.1928 7.82288C14.7885 7.5891 14.3555 7.40906 13.9046 7.28734L15.2154 5.94415L15.1928 7.82288ZM7.82238 15.1924L5.94373 15.2152L7.28722 13.9045C7.40878 14.3553 7.58869 14.7883 7.82238 15.1924ZM17.1772 9.80748L19.0559 9.78453L17.7124 11.0956C17.5908 10.6448 17.4109 10.2117 17.1772 9.80748ZM7.28753 11.0953L5.94408 9.78431L7.82269 9.80725C7.58887 10.2114 7.40896 10.6444 7.28753 11.0953ZM19.0555 15.2154L17.1769 15.1927C17.4107 14.7885 17.5906 14.3555 17.7121 13.9046L19.0555 15.2154ZM9.80771 7.82264L9.78476 5.94388L11.0959 7.28726C10.645 7.40892 10.212 7.58891 9.80771 7.82264ZM15.1924 17.1773L15.2153 19.0559L13.9042 17.7127C14.3551 17.591 14.7881 17.411 15.1924 17.1773ZM9.20859 16.7777L7.48199 17.5176L8.22231 15.7912C8.50725 16.1611 8.83876 16.4927 9.20859 16.7777ZM15.7914 8.22224L17.5177 7.48229L16.7777 9.20889C16.4928 8.83895 16.1613 8.50732 15.7914 8.22224ZM17.8997 12.5C17.8997 12.2625 17.8819 12.0299 17.851 11.802L19.5958 12.5L17.851 13.1979C17.8819 12.9702 17.8997 12.7376 17.8997 12.5ZM8.22235 9.20886L7.48233 7.48209L9.2091 8.22211C8.83916 8.50728 8.50751 8.83893 8.22235 9.20886ZM16.7777 15.7912L17.5177 17.5177L15.791 16.7777C16.1609 16.4926 16.4926 16.1611 16.7777 15.7912ZM11.8024 7.14862L12.5001 5.40396L13.1978 7.14862C12.9702 7.11778 12.7377 7.1 12.5001 7.1C12.2625 7.1 12.03 7.11778 11.8024 7.14862ZM13.1978 17.8514L12.5001 19.5961L11.8024 17.8514C12.03 17.8823 12.2625 17.9001 12.5001 17.9001C12.7377 17.9001 12.9702 17.8823 13.1978 17.8514ZM17.1 12.5C17.1 15.0405 15.0405 17.1 12.5 17.1C9.95949 17.1 7.9 15.0405 7.9 12.5C7.9 9.95949 9.95949 7.9 12.5 7.9C15.0405 7.9 17.1 9.95949 17.1 12.5Z" stroke="#FF843F" stroke-width="0.3"/>
</svg>
