<svg width="24" height="24" viewBox="0 0 24 24" fill="none" xmlns="http://www.w3.org/2000/svg">
<mask id="path-1-inside-1_347_3279" fill="white">
<path fill-rule="evenodd" clip-rule="evenodd" d="M9 7.96908L7.19675 7.19629L8.188 9.50929C8.42255 9.17205 8.69517 8.8639 9 8.59072V7.96908ZM9 9.28843C8.2238 10.1339 7.75 11.2615 7.75 12.4998C7.75 13.738 8.2238 14.8656 9 15.7111V9.28843ZM9 16.4091C8.6951 16.1359 8.42249 15.8277 8.18805 15.4903L7.1963 17.8031L9 17.0301V16.4091ZM12.5001 19.9998L12.5001 19.9998L12.5001 19.9998H12.5001ZM5.57052 15.3695L7.37077 13.6132C7.50393 14.227 7.74692 14.8116 8.08802 15.339L5.57052 15.3695ZM5.57091 9.62951L8.08841 9.66026C7.74706 10.1876 7.50406 10.7723 7.37116 11.3863L5.57091 9.62951ZM7.338 11.5645C7.28325 11.8687 7.25 12.1802 7.25 12.4997C7.2514 12.8133 7.28085 13.1262 7.338 13.4345L5 12.4995L7.338 11.5645Z"/>
</mask>
<path d="M9 7.96908H9.3V7.77126L9.11817 7.69334L9 7.96908ZM7.19675 7.19629L7.31492 6.92054L6.62558 6.62512L6.921 7.31446L7.19675 7.19629ZM8.188 9.50929L7.91225 9.62746L8.12537 10.1248L8.43429 9.68058L8.188 9.50929ZM9 8.59072L9.20022 8.81414L9.3 8.72471V8.59072H9ZM9 9.28843H9.3V8.51802L8.779 9.08555L9 9.28843ZM9 15.7111L8.779 15.914L9.3 16.4815V15.7111H9ZM9 16.4091H9.3V16.2751L9.20019 16.1857L9 16.4091ZM8.18805 15.4903L8.43441 15.3191L8.12561 14.8747L7.91233 15.3721L8.18805 15.4903ZM7.1963 17.8031L6.92058 17.6848L6.62491 18.3743L7.31447 18.0788L7.1963 17.8031ZM9 17.0301L9.11817 17.3058L9.3 17.2279V17.0301H9ZM12.5001 19.9998L12.2216 20.1113L12.5001 20.8076L12.7786 20.1113L12.5001 19.9998ZM12.5001 19.9998V19.6998H12.057L12.2215 20.1112L12.5001 19.9998ZM12.5001 19.9998L12.7787 20.1112L12.9432 19.6998H12.5001V19.9998ZM7.37077 13.6132L7.66394 13.5496L7.54907 13.0202L7.16127 13.3985L7.37077 13.6132ZM5.57052 15.3695L5.36102 15.1548L4.8241 15.6786L5.57415 15.6695L5.57052 15.3695ZM8.08802 15.339L8.09165 15.639L8.63508 15.6324L8.33991 15.1761L8.08802 15.339ZM8.08841 9.66026L8.34024 9.82329L8.63567 9.36693L8.09207 9.36029L8.08841 9.66026ZM5.57091 9.62951L5.57457 9.32954L4.82456 9.32038L5.36138 9.84422L5.57091 9.62951ZM7.37116 11.3863L7.16163 11.601L7.54966 11.9796L7.66436 11.4497L7.37116 11.3863ZM7.25 12.4997H6.95L6.95 12.5011L7.25 12.4997ZM7.338 11.5645L7.63326 11.6176L7.72911 11.085L7.2266 11.2859L7.338 11.5645ZM7.338 13.4345L7.2266 13.713L7.73221 13.9152L7.63298 13.3798L7.338 13.4345ZM5 12.4995L4.8886 12.2209L4.19208 12.4995L4.8886 12.778L5 12.4995ZM9.11817 7.69334L7.31492 6.92054L7.07858 7.47203L8.88183 8.24483L9.11817 7.69334ZM6.921 7.31446L7.91225 9.62746L8.46374 9.39112L7.47249 7.07812L6.921 7.31446ZM8.43429 9.68058C8.65553 9.36248 8.91269 9.07181 9.20022 8.81414L8.79978 8.36731C8.47766 8.65599 8.18957 8.98162 7.94171 9.338L8.43429 9.68058ZM9.3 8.59072V7.96908H8.7V8.59072H9.3ZM8.779 9.08555C7.95399 9.98424 7.45 11.1835 7.45 12.4998H8.05C8.05 11.3396 8.49361 10.2837 9.221 9.49131L8.779 9.08555ZM7.45 12.4998C7.45 13.8161 7.95399 15.0153 8.779 15.914L9.221 15.5082C8.49361 14.7159 8.05 13.66 8.05 12.4998H7.45ZM9.3 15.7111V9.28843H8.7V15.7111H9.3ZM9.20019 16.1857C8.91264 15.928 8.65552 15.6373 8.43441 15.3191L7.94168 15.6615C8.18946 16.0181 8.47757 16.3438 8.79981 16.6325L9.20019 16.1857ZM7.91233 15.3721L6.92058 17.6848L7.47201 17.9213L8.46376 15.6085L7.91233 15.3721ZM7.31447 18.0788L9.11817 17.3058L8.88183 16.7543L7.07812 17.5273L7.31447 18.0788ZM9.3 17.0301V16.4091H8.7V17.0301H9.3ZM12.7786 19.8884L12.7786 19.8884L12.2215 20.1112L12.2216 20.1113L12.7786 19.8884ZM12.2216 19.8884L12.2216 19.8884L12.7786 20.1113L12.7787 20.1112L12.2216 19.8884ZM12.5001 19.6998H12.5001V20.2998H12.5001V19.6998ZM7.16127 13.3985L5.36102 15.1548L5.78001 15.5842L7.58026 13.828L7.16127 13.3985ZM8.33991 15.1761C8.01845 14.6791 7.78945 14.1281 7.66394 13.5496L7.07759 13.6768C7.21842 14.3259 7.47539 14.9442 7.83612 15.5019L8.33991 15.1761ZM5.57415 15.6695L8.09165 15.639L8.08438 15.039L5.56688 15.0695L5.57415 15.6695ZM8.09207 9.36029L5.57457 9.32954L5.56724 9.92949L8.08474 9.96024L8.09207 9.36029ZM7.66436 11.4497C7.7896 10.8712 8.01859 10.3202 8.34024 9.82329L7.83657 9.49724C7.47553 10.055 7.21851 10.6735 7.07795 11.3228L7.66436 11.4497ZM5.36138 9.84422L7.16163 11.601L7.58068 11.1716L5.78043 9.4148L5.36138 9.84422ZM7.55 12.4997C7.55 12.2011 7.58107 11.9076 7.63326 11.6176L7.04274 11.5114C6.98543 11.8299 6.95 12.1594 6.95 12.4997H7.55ZM7.63298 13.3798C7.57909 13.0891 7.55132 12.7941 7.55 12.4984L6.95 12.5011C6.95149 12.8326 6.98262 13.1632 7.04302 13.4892L7.63298 13.3798ZM4.8886 12.778L7.2266 13.713L7.4494 13.1559L5.1114 12.2209L4.8886 12.778ZM7.2266 11.2859L4.8886 12.2209L5.1114 12.778L7.4494 11.843L7.2266 11.2859Z" fill="black" mask="url(#path-1-inside-1_347_3279)"/>
</svg>
