<svg width="24" height="24" viewBox="0 0 24 24" fill="none" xmlns="http://www.w3.org/2000/svg">
<mask id="path-1-inside-1_347_3273" fill="white">
<path fill-rule="evenodd" clip-rule="evenodd" d="M12.5 7.24976V5L11.5651 7.33776C11.8688 7.28302 12.1803 7.24977 12.5 7.24976ZM12.5 7.74976C9.87665 7.74976 7.75 9.87641 7.75 12.4998C7.75 15.1231 9.87665 17.2498 12.5 17.2498V7.74976ZM12.5 17.7498C12.1803 17.7498 11.8688 17.7166 11.5651 17.6618L12.5 19.9996V17.7498ZM12.5001 19.9998L12.5001 19.9998L12.5001 19.9998H12.5001ZM9.63019 5.57051L11.3869 7.37051C10.7731 7.50383 10.1884 7.7469 9.66094 8.08801L9.63019 5.57051ZM9.63019 19.429L11.3869 17.629C10.7731 17.4957 10.1884 17.2526 9.66094 16.9115L9.63019 19.429ZM5.57052 15.3695L7.37077 13.6132C7.50393 14.227 7.74692 14.8116 8.08802 15.339L5.57052 15.3695ZM5.57091 9.6295L8.08841 9.66025C7.74706 10.1876 7.50406 10.7723 7.37116 11.3863L5.57091 9.6295ZM7.1963 17.803L8.18805 15.4903C8.54632 16.0059 8.99376 16.4534 9.5093 16.8118L7.1963 17.803ZM7.338 11.5645C7.28325 11.8687 7.25 12.1802 7.25 12.4997C7.2514 12.8133 7.28085 13.1261 7.338 13.4345L5 12.4995L7.338 11.5645ZM7.19675 7.19628L9.50975 8.18753C8.99416 8.54611 8.54659 8.99369 8.188 9.50928L7.19675 7.19628Z"/>
</mask>
<path d="M12.5 7.24976L12.5 7.54976L12.8 7.54976V7.24976H12.5ZM12.5 5H12.8L12.2214 4.8886L12.5 5ZM11.5651 7.33776L11.2865 7.22637L11.0855 7.72904L11.6183 7.63301L11.5651 7.33776ZM12.5 7.74976H12.8V7.44976H12.5V7.74976ZM12.5 17.2498V17.5498H12.8V17.2498H12.5ZM11.5651 17.6618L11.6183 17.3666L11.0855 17.2705L11.2865 17.7732L11.5651 17.6618ZM12.5 17.7498H12.8V17.4498L12.5 17.4498L12.5 17.7498ZM12.5 19.9996L12.2214 20.111L12.8 19.9996H12.5ZM12.5001 19.9998L12.2216 20.1112L12.5001 20.8076L12.7786 20.1112L12.5001 19.9998ZM12.5001 19.9998V19.6998H12.057L12.2215 20.1112L12.5001 19.9998ZM12.5001 19.9998L12.7787 20.1112L12.9432 19.6998H12.5001V19.9998ZM11.3869 7.37051L11.4506 7.66368L11.98 7.54869L11.6016 7.16098L11.3869 7.37051ZM9.63019 5.57051L9.84488 5.36098L9.32105 4.82425L9.33021 5.57418L9.63019 5.57051ZM9.66094 8.08801L9.36096 8.09168L9.3676 8.635L9.82385 8.33992L9.66094 8.08801ZM11.3869 17.629L11.6016 17.8386L11.98 17.4508L11.4506 17.3358L11.3869 17.629ZM9.63019 19.429L9.33021 19.4253L9.32105 20.1753L9.84488 19.6385L9.63019 19.429ZM9.66094 16.9115L9.82385 16.6596L9.3676 16.3645L9.36096 16.9079L9.66094 16.9115ZM7.37077 13.6132L7.66394 13.5496L7.54907 13.0202L7.16127 13.3985L7.37077 13.6132ZM5.57052 15.3695L5.36102 15.1547L4.8241 15.6785L5.57415 15.6695L5.57052 15.3695ZM8.08802 15.339L8.09165 15.639L8.63508 15.6324L8.33991 15.176L8.08802 15.339ZM8.08841 9.66025L8.34024 9.82328L8.63567 9.36691L8.09207 9.36027L8.08841 9.66025ZM5.57091 9.6295L5.57457 9.32952L4.82456 9.32036L5.36138 9.84421L5.57091 9.6295ZM7.37116 11.3863L7.16163 11.601L7.54966 11.9796L7.66436 11.4497L7.37116 11.3863ZM8.18805 15.4903L8.43441 15.3191L8.12561 14.8747L7.91233 15.3721L8.18805 15.4903ZM7.1963 17.803L6.92058 17.6848L6.62491 18.3743L7.31447 18.0788L7.1963 17.803ZM9.5093 16.8118L9.62747 17.0875L10.1249 16.8744L9.68053 16.5655L9.5093 16.8118ZM7.25 12.4997H6.95L6.95 12.5011L7.25 12.4997ZM7.338 11.5645L7.63326 11.6176L7.72911 11.085L7.2266 11.2859L7.338 11.5645ZM7.338 13.4345L7.2266 13.713L7.73221 13.9152L7.63298 13.3798L7.338 13.4345ZM5 12.4995L4.8886 12.2209L4.19208 12.4995L4.8886 12.778L5 12.4995ZM9.50975 8.18753L9.68104 8.43382L10.1252 8.1249L9.62792 7.91178L9.50975 8.18753ZM7.19675 7.19628L7.31492 6.92053L6.62558 6.62511L6.921 7.31445L7.19675 7.19628ZM8.188 9.50928L7.91225 9.62745L8.12537 10.1247L8.43429 9.68057L8.188 9.50928ZM12.8 7.24976V5H12.2V7.24976H12.8ZM12.2214 4.8886L11.2865 7.22637L11.8436 7.44916L12.7786 5.1114L12.2214 4.8886ZM11.6183 7.63301C11.9077 7.58085 12.2011 7.54977 12.5 7.54976L12.5 6.94976C12.1594 6.94977 11.8299 6.98519 11.5119 7.04252L11.6183 7.63301ZM12.5 7.44976C9.71096 7.44976 7.45 9.71073 7.45 12.4998H8.05C8.05 10.0421 10.0423 8.04976 12.5 8.04976V7.44976ZM7.45 12.4998C7.45 15.2888 9.71096 17.5498 12.5 17.5498V16.9498C10.0423 16.9498 8.05 14.9574 8.05 12.4998H7.45ZM12.8 17.2498V7.74976H12.2V17.2498H12.8ZM11.5119 17.9571C11.8299 18.0144 12.1594 18.0498 12.5 18.0498L12.5 17.4498C12.2011 17.4498 11.9077 17.4187 11.6183 17.3666L11.5119 17.9571ZM12.7786 19.8882L11.8436 17.5504L11.2865 17.7732L12.2214 20.111L12.7786 19.8882ZM12.8 19.9996V17.7498H12.2V19.9996H12.8ZM12.7786 19.8884L12.7786 19.8883L12.2215 20.1112L12.2216 20.1112L12.7786 19.8884ZM12.2216 19.8883L12.2216 19.8884L12.7786 20.1112L12.7787 20.1112L12.2216 19.8883ZM12.5001 19.6998H12.5001V20.2998H12.5001V19.6998ZM11.6016 7.16098L9.84488 5.36098L9.41549 5.78005L11.1722 7.58005L11.6016 7.16098ZM9.82385 8.33992C10.321 8.01842 10.8721 7.78933 11.4506 7.66368L11.3233 7.07735C10.6741 7.21833 10.0558 7.47538 9.49802 7.8361L9.82385 8.33992ZM9.33021 5.57418L9.36096 8.09168L9.96092 8.08435L9.93017 5.56685L9.33021 5.57418ZM11.1722 17.4195L9.41549 19.2195L9.84488 19.6385L11.6016 17.8386L11.1722 17.4195ZM9.49802 17.1634C10.0558 17.5242 10.6741 17.7812 11.3233 17.9222L11.4506 17.3358C10.8721 17.2102 10.321 16.9811 9.82385 16.6596L9.49802 17.1634ZM9.93017 19.4327L9.96092 16.9152L9.36096 16.9079L9.33021 19.4253L9.93017 19.4327ZM7.16127 13.3985L5.36102 15.1547L5.78001 15.5842L7.58026 13.828L7.16127 13.3985ZM8.33991 15.176C8.01845 14.6791 7.78945 14.1281 7.66394 13.5496L7.07759 13.6768C7.21842 14.3259 7.47539 14.9442 7.83612 15.5019L8.33991 15.176ZM5.57415 15.6695L8.09165 15.639L8.08438 15.039L5.56688 15.0695L5.57415 15.6695ZM8.09207 9.36027L5.57457 9.32952L5.56724 9.92948L8.08474 9.96023L8.09207 9.36027ZM7.66436 11.4497C7.7896 10.8712 8.01859 10.3202 8.34024 9.82328L7.83657 9.49723C7.47553 10.0549 7.21851 10.6734 7.07795 11.3228L7.66436 11.4497ZM5.36138 9.84421L7.16163 11.601L7.58068 11.1715L5.78043 9.41479L5.36138 9.84421ZM7.91233 15.3721L6.92058 17.6848L7.47201 17.9213L8.46376 15.6085L7.91233 15.3721ZM9.68053 16.5655C9.1943 16.2275 8.77231 15.8054 8.43441 15.3191L7.94168 15.6615C8.32033 16.2064 8.79321 16.6794 9.33806 17.0581L9.68053 16.5655ZM7.31447 18.0788L9.62747 17.0875L9.39112 16.536L7.07812 17.5273L7.31447 18.0788ZM7.55 12.4997C7.55 12.2011 7.58107 11.9076 7.63326 11.6176L7.04274 11.5113C6.98543 11.8299 6.95 12.1594 6.95 12.4997H7.55ZM7.63298 13.3798C7.57909 13.0891 7.55132 12.7941 7.55 12.4984L6.95 12.5011C6.95149 12.8325 6.98262 13.1632 7.04302 13.4892L7.63298 13.3798ZM4.8886 12.778L7.2266 13.713L7.4494 13.1559L5.1114 12.2209L4.8886 12.778ZM7.2266 11.2859L4.8886 12.2209L5.1114 12.778L7.4494 11.843L7.2266 11.2859ZM9.62792 7.91178L7.31492 6.92053L7.07858 7.47202L9.39158 8.46327L9.62792 7.91178ZM8.43429 9.68057C8.77253 9.19424 9.19471 8.77206 9.68104 8.43382L9.33846 7.94124C8.79362 8.32017 8.32064 8.79314 7.94171 9.33798L8.43429 9.68057ZM6.921 7.31445L7.91225 9.62745L8.46374 9.3911L7.47249 7.0781L6.921 7.31445Z" fill="black" mask="url(#path-1-inside-1_347_3273)"/>
</svg>
