<svg width="24" height="24" viewBox="0 0 24 24" fill="none" xmlns="http://www.w3.org/2000/svg">
<path d="M9.63019 19.4292L11.3869 17.6292C10.7731 17.4959 10.1884 17.2529 9.66094 16.9117L9.63019 19.4292Z" fill="black"/>
<path d="M15.3699 5.57106L13.6136 7.37081C14.2275 7.50421 14.8122 7.74737 15.3396 8.08856L15.3699 5.57106Z" fill="black"/>
<path d="M7.37077 13.6135L5.57052 15.3697L8.08802 15.3392C7.74692 14.8119 7.50393 14.2272 7.37077 13.6135Z" fill="black"/>
<path d="M17.6289 11.3867L19.4291 9.62997L16.9116 9.66072C17.2527 10.1881 17.4957 10.7729 17.6289 11.3867Z" fill="black"/>
<path d="M8.08841 9.66049L5.57091 9.62974L7.37116 11.3865C7.50406 10.7726 7.74706 10.1878 8.08841 9.66049Z" fill="black"/>
<path d="M16.9112 15.3395L19.4287 15.37L17.6285 13.6135C17.4955 14.2274 17.2525 14.8121 16.9112 15.3395Z" fill="black"/>
<path d="M11.3869 7.37075L9.63019 5.57075L9.66094 8.08825C10.1884 7.74714 10.7731 7.50407 11.3869 7.37075Z" fill="black"/>
<path d="M13.6132 17.6292L15.3699 19.429L15.3392 16.9117C14.8116 17.2528 14.227 17.4958 13.6132 17.6292Z" fill="black"/>
<path d="M8.18805 15.4905L7.1963 17.8033L9.5093 16.812C8.99376 16.4537 8.54632 16.0061 8.18805 15.4905Z" fill="black"/>
<path d="M16.812 9.50967L17.8033 7.19667L15.4908 8.18792C16.0063 8.54638 16.4537 8.99398 16.812 9.50967Z" fill="black"/>
<path d="M7.25 12.5C7.25 12.1805 7.28325 11.869 7.338 11.5647L5 12.4997L7.338 13.4347C7.28085 13.1264 7.2514 12.8135 7.25 12.5Z" fill="black"/>
<path d="M19.9997 12.5L17.6617 11.5647C17.7164 11.869 17.7497 12.1805 17.7497 12.5C17.7497 12.8197 17.7164 13.1312 17.6617 13.4352L19.9997 12.5Z" fill="black"/>
<path d="M9.50975 8.18776L7.19675 7.19651L8.188 9.50951C8.54659 8.99393 8.99416 8.54635 9.50975 8.18776Z" fill="black"/>
<path d="M15.4903 16.812L17.8033 17.8033L16.812 15.4905C16.4535 16.0061 16.0059 16.4536 15.4903 16.812Z" fill="black"/>
<path d="M13.4351 7.338L12.5001 5L11.5651 7.338C11.8688 7.28325 12.1803 7.25 12.5001 7.25C12.8198 7.25 13.1313 7.28325 13.4351 7.338Z" fill="black"/>
<path d="M11.5651 17.6621L12.5001 20.0001L13.4351 17.6621C13.1313 17.7168 12.8198 17.7501 12.5001 17.7501C12.1803 17.7501 11.8688 17.7168 11.5651 17.6621Z" fill="black"/>
<path d="M12.5 17.25C15.1234 17.25 17.25 15.1234 17.25 12.5C17.25 9.87665 15.1234 7.75 12.5 7.75C9.87665 7.75 7.75 9.87665 7.75 12.5C7.75 15.1234 9.87665 17.25 12.5 17.25Z" fill="black"/>
</svg>
