<svg width="24" height="24" viewBox="0 0 24 24" fill="none" xmlns="http://www.w3.org/2000/svg">
<path d="M11.75 16.5C14.3734 16.5 16.5 14.3734 16.5 11.75C16.5 9.12665 14.3734 7 11.75 7M11.75 16.5C9.12665 16.5 7 14.3734 7 11.75C7 9.12665 9.12665 7 11.75 7M11.75 16.5V7" stroke="black" stroke-width="0.3"/>
<mask id="path-2-inside-1_347_3074" fill="white">
<path d="M11.75 15.25V16.5C11.407 16.5 11.0724 16.4636 10.75 16.3946C10.4942 16.3397 10.2461 16.2643 10.0074 16.1702C9.74244 16.0656 9.48915 15.938 9.25 15.7896C9.03743 15.6578 8.83603 15.5097 8.64755 15.347C8.43714 15.1653 8.24284 14.9655 8.06708 14.75C7.87741 14.5174 7.70933 14.2666 7.56589 14.0004C7.44134 13.7694 7.33538 13.5268 7.25 13.2747C7.13922 12.9477 7.0631 12.6046 7.026 12.25C7.00881 12.0857 7 11.9189 7 11.75C7 11.5811 7.00881 11.4143 7.026 11.25C7.25536 9.05751 8.97619 7.30886 11.1557 7.03682C11.3504 7.01252 11.5487 7 11.75 7V7.625V8.25V9.25V10.25V11.25V12.25V13.25V14.25V15.25Z"/>
</mask>
<path d="M8.36123 12.2892L7.36123 13.4338L14.1388 19.3553L15.1388 18.2108L8.36123 12.2892ZM8.41769 11.2258L6.67507 13.146L13.3397 19.1944L15.0823 17.2742L8.41769 11.2258ZM8.54309 10.0931L6.04309 12.6328L12.4569 18.9465L14.9569 16.4069L8.54309 10.0931ZM8.57084 9.0652L5.46839 12.1622L11.8267 18.5318L14.9292 15.4348L8.57084 9.0652ZM8.65006 7.98804L4.96714 11.488L11.167 18.012L14.8499 14.512L8.65006 7.98804ZM8.74641 6.89911L4.56231 10.6496L10.5695 17.3513L14.7536 13.6009L8.74641 6.89911ZM8.75008 5.89582L4.25008 9.92054L10.2499 16.6289L14.7499 12.6042L8.75008 5.89582ZM8.84209 4.81576L4.11809 8.81576L9.93392 15.6842L14.6579 11.6842L8.84209 4.81576ZM9.0105 4.05496L4.2865 7.67996L9.7655 14.82L14.4895 11.195L9.0105 4.05496ZM8.29676 3.5617L4.39106 6.77488L10.1089 13.7251L14.0146 10.5119L8.29676 3.5617ZM11.75 16.5V25.5H20.75V16.5H11.75ZM10.75 16.3946L12.6357 7.59431L12.6356 7.59431L10.75 16.3946ZM10.0074 16.1702L6.70415 24.5421L6.70415 24.5421L10.0074 16.1702ZM9.25 15.7896L13.9935 8.14115L13.9935 8.14114L9.25 15.7896ZM8.64755 15.347L14.5288 8.5344L14.5288 8.5344L8.64755 15.347ZM8.06708 14.75L15.0417 9.06184L15.0417 9.06184L8.06708 14.75ZM7.56589 14.0004L15.4884 9.73032L15.4884 9.73032L7.56589 14.0004ZM7.25 13.2747L-1.27429 16.162L-1.27429 16.162L7.25 13.2747ZM7.026 12.25L15.9772 11.3136V11.3136L7.026 12.25ZM11.75 7H20.75V-2H11.75V7ZM7.026 11.25L15.9772 12.1864V12.1864L7.026 11.25ZM11.1557 7.03682L12.2704 15.9675H12.2704L11.1557 7.03682ZM2.75 15.25V16.5H20.75V15.25H2.75ZM11.75 7.5C12.0447 7.5 12.3421 7.53141 12.6357 7.59431L8.86434 25.1948C9.80268 25.3959 10.7692 25.5 11.75 25.5V7.5ZM2.75 14.25V15.25H20.75V14.25H2.75ZM12.6356 7.59431C12.8678 7.64405 13.0936 7.71265 13.3106 7.79827L6.70415 24.5421C7.39852 24.816 8.1206 25.0354 8.86435 25.1948L12.6356 7.59431ZM2.75 13.25V14.25H20.75V13.25H2.75ZM13.3106 7.79827C13.5513 7.89323 13.7796 8.00852 13.9935 8.14115L4.50653 23.4381C5.19868 23.8674 5.93358 24.238 6.70415 24.5421L13.3106 7.79827ZM2.75 12.25V13.25H20.75V12.25H2.75ZM13.9935 8.14114C14.1834 8.25896 14.3623 8.39062 14.5288 8.5344L2.7663 22.1595C3.3098 22.6287 3.89142 23.0567 4.50654 23.4381L13.9935 8.14114ZM2.75 11.25V12.25H20.75V11.25H2.75ZM14.5288 8.5344C14.7146 8.69483 14.8862 8.87123 15.0417 9.06184L1.09249 20.4382C1.59947 21.0598 2.15964 21.6358 2.7663 22.1595L14.5288 8.5344ZM2.75 10.25V11.25H20.75V10.25H2.75ZM15.0417 9.06184C15.2095 9.26758 15.3595 9.49109 15.4884 9.73032L-0.35661 18.2706C0.0592022 19.042 0.545357 19.7673 1.09249 20.4382L15.0417 9.06184ZM2.75 9.25V10.25H20.75V9.25H2.75ZM15.4884 9.73032C15.6005 9.93823 15.6966 10.1579 15.7743 10.3874L-1.27429 16.162C-1.02579 16.8957 -0.717767 17.6005 -0.356607 18.2706L15.4884 9.73032ZM2.75 8.25V9.25H20.75V8.25H2.75ZM15.7743 10.3874C15.8754 10.686 15.944 10.997 15.9772 11.3136L-1.92515 13.1864C-1.81783 14.2123 -1.59698 15.2093 -1.27429 16.162L15.7743 10.3874ZM15.9772 11.3136C15.9925 11.4598 16 11.6055 16 11.75H-2C-2 12.2322 -1.97483 12.7116 -1.92515 13.1864L15.9772 11.3136ZM2.75 7V7.625H20.75V7H2.75ZM2.75 7.625V8.25H20.75V7.625H2.75ZM16 11.75C16 11.8945 15.9925 12.0402 15.9772 12.1864L-1.92515 10.3136C-1.97483 10.7884 -2 11.2678 -2 11.75H16ZM15.9772 12.1864C15.7702 14.165 14.2358 15.7222 12.2704 15.9675L10.041 -1.89388C3.71656 -1.10449 -1.25944 3.94999 -1.92515 10.3136L15.9772 12.1864ZM12.2704 15.9675C12.0962 15.9893 11.9223 16 11.75 16V-2C11.1752 -2 10.6046 -1.96423 10.041 -1.89388L12.2704 15.9675Z" fill="black" mask="url(#path-2-inside-1_347_3074)"/>
</svg>
