<svg width="24" height="24" viewBox="0 0 24 24" fill="none" xmlns="http://www.w3.org/2000/svg">
<path d="M11.75 16.5C14.3734 16.5 16.5 14.3734 16.5 11.75C16.5 9.12665 14.3734 7 11.75 7M11.75 16.5C9.12665 16.5 7 14.3734 7 11.75C7 9.12665 9.12665 7 11.75 7M11.75 16.5V7" stroke="white" stroke-width="0.3"/>
<path d="M11.6 15.25V16.3476C11.32 16.3386 11.0464 16.3047 10.7814 16.2479C10.5338 16.1948 10.2935 16.1218 10.0624 16.0306C9.80592 15.9294 9.56065 15.8058 9.32906 15.6622C9.12319 15.5345 8.92813 15.391 8.74557 15.2334C8.54177 15.0575 8.35356 14.8639 8.18332 14.6552C7.99961 14.4299 7.83683 14.187 7.69793 13.9293C7.57733 13.7055 7.47473 13.4706 7.39207 13.2266C7.28483 12.91 7.21112 12.5778 7.17519 12.2344C7.15854 12.0753 7.15 11.9136 7.15 11.75C7.15 11.5864 7.15854 11.4247 7.17519 11.2656C7.39728 9.14264 9.06385 7.44908 11.1743 7.18566C11.3143 7.16819 11.4563 7.157 11.6 7.1524V7.625V8.25V9.25V10.25V11.25V12.25V13.25V14.25V15.25Z" stroke="white" stroke-width="0.3"/>
<path d="M16.5 11.75C16.5 14.3734 14.3734 16.5 11.75 16.5C9.12665 16.5 7 14.3734 7 11.75C7 9.12665 9.12665 7 11.75 7C14.3734 7 16.5 9.12665 16.5 11.75Z" fill="white"/>
</svg>
