<svg width="24" height="24" viewBox="0 0 24 24" fill="none" xmlns="http://www.w3.org/2000/svg">
<path d="M12.0943 14.52V7.44615H9.49404V14.5187C8.58202 14.992 7.95081 15.9359 7.95081 17.0345C7.96202 17.7814 8.26657 18.4939 8.7987 19.0182C9.33082 19.5424 10.0478 19.8363 10.7948 19.8364C11.5418 19.8365 12.2589 19.5428 12.7911 19.0186C13.3233 18.4945 13.6281 17.782 13.6394 17.0351C13.6394 15.9365 13.0089 14.9926 12.0949 14.5207L12.0943 14.52ZM14.0444 5.25027C14.0444 3.45872 12.5857 2 10.7942 2C9.0026 2 7.54388 3.45937 7.54388 5.25027V13.5235C7.05688 13.9693 6.66809 14.5117 6.40228 15.1161C6.13647 15.7204 5.99947 16.3736 6 17.0338C6 19.6769 8.15168 21.8293 10.7948 21.8293C13.4379 21.8293 15.589 19.6776 15.589 17.0338C15.589 15.6778 15.0182 14.4141 14.0451 13.5222V5.25157L14.0444 5.25027ZM14.2882 17.0358C14.287 17.9619 13.9184 18.8497 13.2634 19.5044C12.6083 20.1591 11.7203 20.5272 10.7942 20.5278C9.86819 20.5266 8.98049 20.1583 8.32574 19.5035C7.67098 18.8488 7.30261 17.9611 7.30141 17.0351C7.30141 15.8683 7.88386 14.797 8.84594 14.1502V5.25157C8.84594 4.17703 9.71896 3.30141 10.7942 3.30141C11.8693 3.30141 12.7443 4.17638 12.7443 5.25157V14.1508C13.2192 14.4673 13.6086 14.8962 13.878 15.3994C14.1473 15.9025 14.2882 16.4644 14.2882 17.0351V17.0358ZM15.0748 7.44615L18 9.13499V5.75861L15.0748 7.44615Z" fill="#186654"/>
</svg>
