<svg width="24" height="24" viewBox="0 0 24 24" fill="none" xmlns="http://www.w3.org/2000/svg">
<path d="M11.5375 14.754V14.8161L11.5813 14.86L11.5818 14.8605L11.5984 14.8771L11.6192 14.8878C12.275 15.2265 12.7256 15.9023 12.726 16.6874C12.7176 17.2221 12.4993 17.7321 12.1182 18.1073C11.7369 18.4828 11.2232 18.6933 10.688 18.6932C10.1528 18.6931 9.63917 18.4826 9.25794 18.107C8.87697 17.7316 8.65882 17.2216 8.6505 16.6869C8.65093 15.9019 9.10195 15.2259 9.75659 14.8862L9.8375 14.8442V14.753V9.46302H11.5375V14.754ZM13.0375 7.62402V7.65942L13.038 7.66042V13.9865V14.0525L13.0867 14.0971C13.8045 14.755 14.2255 15.6871 14.2255 16.6875C14.2255 18.6382 12.6381 20.226 10.688 20.226C8.73787 20.226 7.15 18.6377 7.15 16.6875L7.15 16.6874C7.14961 16.2004 7.25066 15.7187 7.44673 15.2729C7.64279 14.8271 7.92957 14.427 8.28879 14.0982L8.3375 14.0536V13.9875V7.62402C8.3375 6.32935 9.39236 5.27402 10.6875 5.27402C11.9827 5.27402 13.0375 6.32887 13.0375 7.62402ZM13.525 16.6892V16.689V16.6885C13.525 16.2249 13.4105 15.7684 13.1917 15.3596C12.9857 14.9746 12.6931 14.6432 12.3375 14.3911V7.62502C12.3375 6.71518 11.5973 5.97502 10.6875 5.97502C9.77743 5.97502 9.039 6.71591 9.039 7.62502V14.391C8.29785 14.9198 7.851 15.7674 7.851 16.6885L7.851 16.6887C7.85198 17.4407 8.15112 18.1615 8.68282 18.6932C9.21451 19.2249 9.93537 19.524 10.6873 19.525L10.6876 19.525C11.4397 19.5245 12.1608 19.2256 12.6928 18.6939C13.2247 18.1623 13.524 17.4413 13.525 16.6892ZM16.08 8.27473V10.3522L14.2801 9.31307L16.08 8.27473Z" stroke="#010101" stroke-width="0.3"/>
</svg>
