<svg width="24" height="24" viewBox="0 0 24 24" fill="none" xmlns="http://www.w3.org/2000/svg">
<path d="M11.6875 14.754V9.31302H9.6875V14.753C8.986 15.117 8.5005 15.843 8.5005 16.688C8.50912 17.2625 8.74337 17.8106 9.15266 18.2138C9.56196 18.6171 10.1134 18.8431 10.688 18.8432C11.2626 18.8433 11.8141 18.6173 12.2235 18.2142C12.6329 17.811 12.8673 17.263 12.876 16.6885C12.876 15.8435 12.391 15.1175 11.688 14.7545L11.6875 14.754ZM13.1875 7.62402C13.1875 6.24602 12.0655 5.12402 10.6875 5.12402C9.3095 5.12402 8.1875 6.24652 8.1875 7.62402V13.9875C7.81292 14.3304 7.51388 14.7476 7.30942 15.2125C7.10497 15.6773 6.99959 16.1797 7 16.6875C7 18.7205 8.655 20.376 10.688 20.376C12.721 20.376 14.3755 18.721 14.3755 16.6875C14.3755 15.6445 13.9365 14.6725 13.188 13.9865V7.62502L13.1875 7.62402ZM13.375 16.689C13.3741 17.4014 13.0906 18.0843 12.5867 18.5878C12.0829 19.0914 11.3998 19.3745 10.6875 19.375C9.97528 19.3741 9.2925 19.0908 8.78888 18.5871C8.28527 18.0835 8.00193 17.4007 8.001 16.6885C8.001 15.791 8.449 14.967 9.189 14.4695V7.62502C9.189 6.79852 9.8605 6.12502 10.6875 6.12502C11.5145 6.12502 12.1875 6.79802 12.1875 7.62502V14.47C12.5528 14.7135 12.8523 15.0433 13.0595 15.4304C13.2666 15.8174 13.375 16.2496 13.375 16.6885V16.689ZM13.98 9.31302L16.23 10.612V8.01502L13.98 9.31302Z" fill="black"/>
</svg>
