<svg width="24" height="24" viewBox="0 0 24 24" fill="none" xmlns="http://www.w3.org/2000/svg">
<path d="M11.5001 5.55402C12.0147 6.12686 12.9853 7.26295 13.8446 8.58031C14.7692 9.99766 15.5 11.5288 15.5 12.7656C15.5 13.9493 15.1071 14.8681 14.4428 15.4932C13.7752 16.1214 12.7828 16.5001 11.5 16.5001C10.2172 16.5001 9.22482 16.1214 8.55717 15.4932C7.8929 14.8681 7.5 13.9493 7.5 12.7656C7.5 11.5288 8.2308 9.99767 9.15541 8.58032C10.0148 7.26292 10.9855 6.12681 11.5001 5.55402Z" stroke="white"/>
<path d="M14.5 12.6083C14.5 14.3406 13.1569 15.745 11.5 15.745C9.84315 15.745 8.5 14.3406 8.5 12.6083C8.5 11.7421 9.17157 11.04 10 11.04C10.8284 11.04 11.5 11.7421 11.5 12.6083C11.5 13.4745 12.1716 14.1766 13 14.1766C13.8284 14.1766 14.5 13.4745 14.5 12.6083Z" fill="white"/>
</svg>
