<svg width="24" height="24" viewBox="0 0 24 24" fill="none" xmlns="http://www.w3.org/2000/svg">
<path d="M11.5973 5.16997C11.6274 5.183 11.6534 5.20169 11.674 5.22421C12.166 5.76594 13.2138 6.97265 14.1378 8.38899C15.0662 9.81229 15.85 11.4184 15.85 12.7655C15.85 14.0301 15.4278 15.0468 14.6827 15.748C13.9365 16.4501 12.8513 16.85 11.5 16.85C10.1487 16.85 9.06351 16.4501 8.31732 15.748C7.57215 15.0468 7.15 14.0301 7.15 12.7655C7.15 11.4184 7.93378 9.81229 8.86227 8.389C9.78623 6.97265 10.8341 5.76594 11.3263 5.22423C11.3469 5.2017 11.3729 5.183 11.403 5.16997C11.4331 5.15691 11.4663 5.15 11.5002 5.15C11.534 5.15 11.5672 5.15691 11.5973 5.16997Z" stroke="#4C48FF" stroke-width="0.3"/>
</svg>
